<?xml version="1.0" encoding="UTF-8" standalone="no"?>
<!-- Created with Inkscape (http://www.inkscape.org/) -->

<svg
  xmlns:dc="http://purl.org/dc/elements/1.1/"
  xmlns:cc="http://creativecommons.org/ns#"
  xmlns:rdf="http://www.w3.org/1999/02/22-rdf-syntax-ns#"
  xmlns:svg="http://www.w3.org/2000/svg"
  xmlns="http://www.w3.org/2000/svg"
  xmlns:sodipodi="http://sodipodi.sourceforge.net/DTD/sodipodi-0.dtd"
  xmlns:inkscape="http://www.inkscape.org/namespaces/inkscape"
  width="51.59375mm"
  height="51.593754mm"
  viewBox="0 0 182.8125 182.81251"
  id="svg2"
  version="1.1"
  inkscape:version="0.91 r13725"
  sodipodi:docname="tam5.svg">
  <defs id="defs4"/>
  <sodipodi:namedview
    id="base"
    pagecolor="#ffffff"
    bordercolor="#666666"
    borderopacity="1.0"
    inkscape:pageopacity="0.0"
    inkscape:pageshadow="2"
    inkscape:zoom="5.6"
    inkscape:cx="126.91055"
    inkscape:cy="131.32912"
    inkscape:document-units="px"
    inkscape:current-layer="g3373"
    showgrid="true"
    inkscape:window-width="1920"
    inkscape:window-height="1056"
    inkscape:window-x="1366"
    inkscape:window-y="24"
    inkscape:window-maximized="1"
    fit-margin-top="0"
    fit-margin-left="0"
    fit-margin-right="0"
    fit-margin-bottom="0">
    <inkscape:grid type="xygrid" id="grid3340"/>
  </sodipodi:namedview>
  <metadata id="metadata7">
    <rdf:RDF>
      <cc:Work rdf:about="">
        <dc:format>image/svg+xml</dc:format>
        <dc:type rdf:resource="http://purl.org/dc/dcmitype/StillImage"/>
        <dc:title/>
      </cc:Work>
    </rdf:RDF>
  </metadata>
  <g inkscape:label="Layer 1" inkscape:groupmode="layer" id="layer1" transform="translate(-237.99108,-184.99615)">
    <g id="g3373" transform="translate(63.214286,3.5714286)">
      <g id="g3369">
        <path
          sodipodi:nodetypes="cccccccccccccscssccscccssssssssscccsssscsscscccccccccccccccccsssssssssssssssscccssscsssssscccssssscccssccscsssscscsssccccccssscccssssssssssssssscssscsssssssscs"
          inkscape:connector-curvature="0"
          id="path3379"
          d="m 174.77679,272.83098 0,-91.40626 91.40625,0 91.40625,0 0,91.40626 0,91.40625 -91.40625,0 -91.40625,0 z m 177.1875,-0.47366 0,-86.25491 -86.01562,0.23929 -86.01563,0.23927 -0.24188,84.84376 c -0.13304,46.66406 -0.0408,85.37109 0.20494,86.01562 0.0767,0.20112 0.99201,0.37017 3.07311,0.51158 7.4976,0.50948 30.12643,0.6603 83.18441,0.6603 l 85.81067,0 z m -144.14062,59.39632 -2.10938,-0.45932 0,-23.84105 0,-23.84104 12.82901,0 c 15.82598,0 19.5855,1.33676 22.87597,8.13396 4.04663,8.35923 3.3641,28.73908 -1.1549,34.48405 -3.5553,4.51983 -6.89088,5.52747 -19.08133,5.76422 -6.1875,0.12017 -12.19922,0.0118 -13.35937,-0.24082 z m 21.97897,-10.08978 c 2.5216,-2.16734 2.64343,-2.6647 2.94543,-12.02458 0.41083,-12.733 -0.82422,-16.08579 -6.48714,-17.61066 -2.1836,-0.58798 -5.37958,-0.80465 -7.10217,-0.4815 l -3.13197,0.58757 0,15.89501 0,15.89503 5.57273,0 c 4.53759,0 6.06131,-0.41996 8.20312,-2.26087 z m 25.93695,8.39196 c -3.69176,-2.58582 -4.22601,-5.8339 -3.91403,-23.79638 l 0.29498,-16.98431 2.59756,-2.59708 c 2.43818,-2.43772 3.1779,-2.61704 12.05576,-2.92251 5.202,-0.17899 11.31044,-0.0476 13.57431,0.29183 4.05528,0.60811 4.11612,0.67137 4.11612,4.27909 l 0,3.66186 -10.54687,0.26508 -10.54688,0.26508 -0.28116,5.39062 -0.28116,5.39063 9.42179,0 9.42178,0 0,3.75 0,3.75 -9.375,0 -9.375,0 0,6.06304 0,6.06305 10.54688,0.26508 10.54687,0.26508 0.28828,3.98437 0.28828,3.98438 -13.43906,0 c -10.2656,0 -13.90056,-0.32325 -15.39345,-1.36891 z m 45.74424,-0.27172 c -0.94992,-1.81439 -13.26954,-43.85012 -13.26954,-45.27692 0,-0.49222 2.31228,-0.89495 5.13839,-0.89495 4.82237,0 5.17851,0.15855 5.79074,2.57812 0.35879,1.41797 2.58786,10.3022 4.95347,19.74272 2.36561,9.44053 4.71063,17.16459 5.21115,17.16459 0.50052,0 2.84554,-7.72406 5.21115,-17.16459 2.36561,-9.44052 4.59468,-18.32475 4.95347,-19.74272 0.61223,-2.41957 0.96837,-2.57812 5.79074,-2.57812 3.01375,0 5.13839,0.41336 5.13839,0.9997 0,1.85124 -12.51769,44.45689 -13.40946,45.64092 -0.5656,0.75096 -3.35505,1.17188 -7.7661,1.17188 -5.60347,0 -7.04319,-0.30509 -7.7424,-1.64063 z m 7.58984,-62.74868 -6.79688,-0.38034 0,-23.74441 0,-23.74441 9.14063,-0.61364 c 17.89381,-1.20128 24.45662,1.54302 25.32595,10.59028 0.5878,6.1173 -1.10311,10.25263 -4.86138,11.88909 -1.87789,0.81768 -2.288,1.26966 -1.17371,1.29354 0.94201,0.0202 2.90978,1.23373 4.37283,2.69678 5.22858,5.22859 4.42386,16.58509 -1.41625,19.98639 -3.12936,1.82255 -13.2838,2.65943 -24.59119,2.02672 z m 16.70225,-8.76868 c 1.40956,-0.75437 1.81337,-1.9814 1.81337,-5.51021 0,-5.80761 -1.36476,-6.932 -9.00433,-7.41845 l -5.99567,-0.38178 0,7.14046 0,7.14047 5.68663,0 c 3.12765,0 6.50265,-0.43672 7.5,-0.97049 z m -0.59734,-21.12773 c 0.83476,-0.83477 1.47321,-3.05503 1.47321,-5.12326 0,-4.52828 -1.68118,-5.59103 -8.84462,-5.59103 l -5.21788,0 0,6.09375 0,6.09375 5.55804,0 c 3.80276,0 6.02328,-0.46525 7.03125,-1.47321 z m -130.71429,5.77945 0,-23.81875 8.7956,-0.65944 c 9.70854,-0.72787 17.49797,0.007 21.42994,2.02014 4.01088,2.05412 5.58935,5.27058 5.64811,11.50918 0.0614,6.51855 -1.63459,9.76142 -6.13512,11.73078 -1.66088,0.72677 -2.34688,1.35582 -1.52446,1.39788 2.62322,0.13416 4.55905,3.32051 6.93351,11.41244 1.2722,4.33554 2.32193,8.43119 2.33275,9.10144 0.0144,0.89286 -1.42152,1.1435 -5.37095,0.9375 l -5.39063,-0.28115 -2.04271,-7.79236 c -1.12349,-4.2858 -2.54624,-8.39909 -3.16166,-9.14063 -0.7194,-0.86682 -2.9192,-1.34827 -6.16042,-1.34827 l -5.04146,0 0,9.37501 0,9.375 -5.15625,0 -5.15625,0 z m 24.34202,-5.1821 c 1.44991,-2.70918 1.17114,-8.16454 -0.50273,-9.83842 -1.03373,-1.03373 -3.27111,-1.47322 -7.5,-1.47322 l -6.02679,0 0,6.5625 0,6.5625 6.52952,0 c 5.49605,0 6.68312,-0.28701 7.5,-1.81336 z m 19.78088,22.67274 c 0.0332,-3.48047 0.38648,-13.85456 0.78501,-23.05355 0.55384,-12.78388 1.03671,-16.92299 2.04897,-17.56377 2.0637,-1.30635 14.52717,-1.06149 15.66353,0.30774 1.04821,1.26301 7.69209,27.87161 7.69209,30.80666 0,0.9727 0.42188,1.76854 0.9375,1.76854 0.51563,0 0.93743,-0.73828 0.93734,-1.64062 -2.6e-4,-2.73867 6.73604,-29.68193 7.73493,-30.9375 0.60354,-0.75863 3.52499,-1.17188 8.28454,-1.17188 6.0467,0 7.50623,0.29132 8.21955,1.64063 0.47702,0.90234 1.14788,10.5 1.49079,21.32812 0.34291,10.82813 0.84473,20.84766 1.11515,22.26563 0.48753,2.55633 0.44864,2.57812 -4.59867,2.57812 l -5.09036,0 -0.60914,-8.58151 c -0.33502,-4.71985 -0.65904,-12.41907 -0.72004,-17.10938 -0.061,-4.69032 -0.40933,-9.79348 -0.77403,-11.34036 l -0.6631,-2.8125 -1.06198,3.75 c -0.58408,2.0625 -2.17752,8.60157 -3.54096,14.53125 -3.31453,14.41503 -3.72911,15 -10.63084,15 -3.31305,0 -5.88297,-0.4752 -6.48355,-1.19885 -0.54724,-0.65937 -2.53596,-7.51484 -4.4194,-15.23438 -1.88344,-7.71953 -3.67575,-14.66833 -3.98293,-15.44177 -0.88021,-2.21628 -1.86806,8.70187 -1.99335,22.03125 -0.15428,16.41425 -0.15144,16.40625 -5.82329,16.40625 l -4.57816,1e-5 z"
          style="fill:#f4f630"/>
        <path inkscape:connector-curvature="0"
          id="path3377"
          d="m 173.34822,270.86671 0,-91.40626 91.40625,0 91.40625,0 0,91.40626 0,91.40625 -91.40625,0 -91.40625,0 0,-91.40625 z m 177.1875,-0.47366 0,-86.25491 -86.01562,0.23929 -86.01563,0.23927 -0.24188,84.84376 c -0.13304,46.66406 -0.0408,85.37109 0.20494,86.01562 0.35298,0.92571 18.4723,1.17188 86.25752,1.17188 l 85.81067,0 0,-86.25491 z m -42.89062,-5.3219 -6.79688,-0.38034 0,-23.74441 0,-23.74441 9.14063,-0.61364 c 17.89381,-1.20128 24.45662,1.54302 25.32595,10.59028 0.5878,6.1173 -1.10311,10.25263 -4.86138,11.88909 -1.87789,0.81768 -2.288,1.26966 -1.17371,1.29354 0.94201,0.0202 2.90978,1.23373 4.37283,2.69678 5.22858,5.22859 4.42386,16.58509 -1.41625,19.98639 -3.12936,1.82255 -13.2838,2.65943 -24.59119,2.02672 z m 16.70225,-8.76868 c 1.40956,-0.75437 1.81337,-1.9814 1.81337,-5.51021 0,-5.80761 -1.36476,-6.93201 -9.00433,-7.41846 l -5.99567,-0.38177 0,7.14046 0,7.14047 5.68663,0 c 3.12765,0 6.50265,-0.43672 7.5,-0.97049 z m -0.59734,-21.12773 c 0.83476,-0.83477 1.47321,-3.05503 1.47321,-5.12326 0,-4.52828 -1.68118,-5.59103 -8.84462,-5.59103 l -5.21788,0 0,6.09375 0,6.09375 5.55804,0 c 3.80276,0 6.02328,-0.46525 7.03125,-1.47321 z m -130.71429,5.77945 0,-23.81875 8.7956,-0.65944 c 9.70854,-0.72787 17.49797,0.007 21.42994,2.02014 4.01088,2.05412 5.58935,5.27058 5.64811,11.50918 0.0614,6.51855 -1.63459,9.76142 -6.13512,11.73078 -1.66088,0.72677 -2.34688,1.35582 -1.52446,1.39788 2.62322,0.13416 4.55905,3.32051 6.93351,11.41244 1.2722,4.33554 2.32193,8.43119 2.33275,9.10144 0.0144,0.89286 -1.42152,1.1435 -5.37095,0.9375 l -5.39063,-0.28115 -2.04271,-7.79236 c -1.12349,-4.2858 -2.54624,-8.39909 -3.16166,-9.14063 -0.7194,-0.86682 -2.9192,-1.34827 -6.16042,-1.34827 l -5.04146,0 0,9.37501 0,9.375 -5.15625,0 -5.15625,0 0,-23.81877 z m 24.34202,-5.1821 c 1.44991,-2.70918 1.17114,-8.16454 -0.50273,-9.83842 -1.03373,-1.03373 -3.27111,-1.47322 -7.5,-1.47322 l -6.02679,0 0,6.5625 0,6.5625 6.52952,0 c 5.49605,0 6.68312,-0.28701 7.5,-1.81336 z m 19.78088,22.67274 c 0.0332,-3.48047 0.38648,-13.85456 0.78501,-23.05355 0.55384,-12.78388 1.03671,-16.92299 2.04897,-17.56377 2.0637,-1.30635 14.52717,-1.06149 15.66353,0.30774 1.04821,1.26301 7.69209,27.87161 7.69209,30.80666 0,0.9727 0.42188,1.76854 0.9375,1.76854 0.51563,0 0.93743,-0.73828 0.93734,-1.64062 -2.6e-4,-2.73867 6.73604,-29.68193 7.73493,-30.9375 0.60354,-0.75863 3.52499,-1.17188 8.28454,-1.17188 6.0467,0 7.50623,0.29132 8.21955,1.64063 0.47702,0.90234 1.14788,10.5 1.49079,21.32812 0.34291,10.82813 0.84473,20.84766 1.11515,22.26563 0.48753,2.55633 0.44864,2.57812 -4.59867,2.57812 l -5.09036,0 -0.60914,-8.58151 c -0.33502,-4.71985 -0.65904,-12.41907 -0.72004,-17.10938 -0.061,-4.69032 -0.40933,-9.79348 -0.77403,-11.34036 l -0.6631,-2.8125 -1.06198,3.75 c -0.58408,2.0625 -2.17752,8.60157 -3.54096,14.53125 -3.31453,14.41503 -3.72911,15 -10.63084,15 -3.31305,0 -5.88297,-0.4752 -6.48355,-1.19885 -0.54724,-0.65937 -2.53596,-7.51484 -4.4194,-15.23438 -1.88344,-7.71953 -3.67575,-14.66833 -3.98293,-15.44177 -0.88021,-2.21628 -1.86806,8.70187 -1.99335,22.03125 -0.15428,16.41425 -0.15144,16.40625 -5.82329,16.40625 l -4.57816,1e-5 0.0604,-6.32813 z"
          style="fill:#0c93cf"/>
      </g>
    </g>
  </g>
</svg>
